<svg width="15" height="15" viewBox="0 0 15 15" fill="none" xmlns="http://www.w3.org/2000/svg">
<rect x="1.5" y="3" width="9" height="1.5" fill="#FF3B30"/>
<rect y="3" width="1.5" height="7.5" fill="#FF3B30"/>
<rect x="1.5" y="9" width="9" height="1.5" fill="#FF3B30"/>
<rect x="13.5" width="1.5" height="13.5" fill="#FF3B30"/>
<rect x="12" y="12" width="1.5" height="1.5" fill="#FF3B30"/>
<rect x="10.5" y="10.5" width="1.5" height="1.5" fill="#FF3B30"/>
<rect x="10.5" y="1.5" width="1.5" height="1.5" fill="#FF3B30"/>
<rect x="12" width="1.5" height="1.5" fill="#FF3B30"/>
<rect x="4.5" y="4.5" width="1.5" height="4.5" fill="#FF3B30"/>
<rect x="3" y="10.5" width="1.5" height="3" fill="#FF3B30"/>
<rect x="3" y="13.5" width="4.5" height="1.5" fill="#FF3B30"/>
<rect x="6" y="10.5" width="1.5" height="3" fill="#FF3B30"/>
<rect x="1.5" y="4.5" width="12.75" height="4.5" fill="#FF3B30"/>
<rect x="9.75" y="3" width="3.75" height="7.5" fill="#FF3B30"/>
<rect x="12" y="1.5" width="2.25" height="10.5" fill="#FF3B30"/>
<rect x="4.5" y="4.5" width="2.25" height="10.5" fill="#FF3B30"/>
<rect y="3" width="0.75" height="7.5" fill="#FFD0D0"/>
<rect x="12" width="3" height="13.5" fill="#FFD0D0"/>
</svg>
