<svg width="35" height="35" viewBox="0 0 35 35" fill="none" xmlns="http://www.w3.org/2000/svg">
<rect x="24.4961" y="10.5" width="3.50013" height="3.50011" fill="#FFA600"/>
<rect x="10.6758" width="13.9995" height="3.49987" fill="black"/>
<rect x="10.6758" y="3.49805" width="13.9995" height="3.49987" fill="#FFD900"/>
<rect x="10.5" y="7" width="13.9995" height="3.49987" fill="#FFA600"/>
<rect x="6.99609" y="7" width="3.50013" height="3.50011" fill="#FFD900"/>
<rect x="24.4961" y="7" width="3.50013" height="3.50011" fill="#FFD900"/>
<rect x="28" y="10.5" width="3.50013" height="3.50011" fill="#FFD900"/>
<rect x="3.5" y="10.5" width="20.9993" height="3.49987" fill="#FFD900"/>
<rect x="3.5" y="17.5" width="27.9991" height="3.49987" fill="#FFD900"/>
<rect x="3.5" y="14" width="27.9991" height="3.49987" fill="#FFD900"/>
<rect x="3.5" y="20.998" width="27.9991" height="3.49987" fill="#FFD900"/>
<rect x="6.99609" y="24.5" width="20.9993" height="3.49987" fill="#FFD900"/>
<rect x="10.5" y="27.998" width="13.9995" height="3.49987" fill="#FFD900"/>
<rect x="3.5" y="24.5" width="3.50013" height="3.50011" fill="black"/>
<rect x="28" y="24.5" width="3.50013" height="3.50011" fill="black"/>
<rect x="3.32422" y="7" width="3.67514" height="3.50011" fill="black"/>
<rect x="28" y="7" width="3.50013" height="3.50011" fill="black"/>
<rect y="10.5" width="3.50013" height="3.50011" fill="black"/>
<rect x="31.5" y="10.5" width="3.50013" height="3.50011" fill="black"/>
<rect y="17.5" width="3.50013" height="3.50011" fill="black"/>
<rect x="31.5" y="17.5" width="3.50013" height="3.50011" fill="black"/>
<rect y="14" width="3.50013" height="3.50011" fill="black"/>
<rect x="24.4961" y="14" width="3.50013" height="10.5003" fill="white"/>
<rect x="6.99609" y="10.5" width="3.49988" height="13.9995" fill="#FFA600"/>
<rect x="10.5" y="24.5" width="13.9995" height="3.49987" fill="#FFA600"/>
<rect x="31.5" y="14" width="3.50013" height="3.50011" fill="black"/>
<rect y="20.998" width="3.50013" height="3.50011" fill="black"/>
<rect x="31.5" y="20.998" width="3.50013" height="3.50011" fill="black"/>
<rect x="24.4961" y="10.5" width="3.50013" height="3.50011" fill="#FFA600"/>
<rect x="10.5" y="20.998" width="3.50013" height="3.50011" fill="#FFA600"/>
<rect x="10.5" y="10.5" width="3.50013" height="3.50011" fill="#FFA600"/>
<rect x="21" y="20.998" width="3.50013" height="3.50011" fill="white"/>
<rect x="6.99609" y="27.998" width="3.50013" height="3.50011" fill="black"/>
<rect x="24.4961" y="27.998" width="3.50013" height="3.50011" fill="black"/>
<rect x="6.99609" y="3.49805" width="3.67514" height="3.50011" fill="black"/>
<rect x="24.4961" y="3.49805" width="3.50013" height="3.50011" fill="black"/>
<rect x="10.5" y="31.5" width="13.9995" height="3.49987" fill="black"/>
</svg>
